<?xml version="1.0" encoding="UTF-8" standalone="no"?>
<!-- Created with Inkscape (http://www.inkscape.org/) -->

<svg
   xmlns:dc="http://purl.org/dc/elements/1.1/"
   xmlns:cc="http://creativecommons.org/ns#"
   xmlns:rdf="http://www.w3.org/1999/02/22-rdf-syntax-ns#"
   xmlns:svg="http://www.w3.org/2000/svg"
   xmlns="http://www.w3.org/2000/svg"
   xmlns:xlink="http://www.w3.org/1999/xlink"
   xmlns:sodipodi="http://sodipodi.sourceforge.net/DTD/sodipodi-0.dtd"
   xmlns:inkscape="http://www.inkscape.org/namespaces/inkscape"
   inkscape:export-ydpi="10.140845"
   inkscape:export-xdpi="10.140845"
   inkscape:export-filename="C:\Users\Administrator\Desktop\bitmap2.png"
   sodipodi:docname="gear.svg"
   inkscape:version="0.48.4 r9939"
   version="1.1"
   id="svg2"
   height="1052.3622047"
   width="744.09448819">
  <sodipodi:namedview
     id="base"
     pagecolor="#ffffff"
     bordercolor="#666666"
     borderopacity="1.0"
     inkscape:pageopacity="0.0"
     inkscape:pageshadow="2"
     inkscape:zoom="1.4"
     inkscape:cx="152.14286"
     inkscape:cy="491.42857"
     inkscape:document-units="px"
     inkscape:current-layer="layer1"
     showgrid="false"
     inkscape:window-width="1680"
     inkscape:window-height="988"
     inkscape:window-x="-8"
     inkscape:window-y="-8"
     inkscape:window-maximized="1" />
  <defs
     id="defs4">
    <linearGradient
       id="linearGradient4133">
      <stop
         id="stop4135"
         offset="0"
         style="stop-color:#909090;stop-opacity:1;" />
      <stop
         id="stop4137"
         offset="1"
         style="stop-color:#d9d9d9;stop-opacity:1;" />
    </linearGradient>
    <linearGradient
       id="linearGradient4087">
      <stop
         id="stop4089"
         offset="0"
         style="stop-color:#a9a9a9;stop-opacity:1;" />
      <stop
         id="stop4091"
         offset="1"
         style="stop-color:#cccccc;stop-opacity:0;" />
    </linearGradient>
    <linearGradient
       y2="82.14286"
       x2="64.775711"
       y1="-90.714287"
       x1="-64.061424"
       gradientUnits="userSpaceOnUse"
       id="linearGradient4095"
       xlink:href="#linearGradient4087"
       inkscape:collect="always" />
    <linearGradient
       gradientTransform="translate(292.85714,15)"
       gradientUnits="userSpaceOnUse"
       y2="595.9375"
       x2="384.0491"
       y1="361.65179"
       x1="168.08035"
       id="linearGradient4139"
       xlink:href="#linearGradient4133"
       inkscape:collect="always" />
    <linearGradient
       inkscape:collect="always"
       xlink:href="#linearGradient4133"
       id="linearGradient4796"
       x1="66.53125"
       y1="443.79465"
       x2="269.19196"
       y2="651.65179"
       gradientUnits="userSpaceOnUse" />
    <linearGradient
       inkscape:collect="always"
       xlink:href="#linearGradient4133"
       id="linearGradient4802"
       gradientUnits="userSpaceOnUse"
       x1="66.53125"
       y1="443.79465"
       x2="269.19196"
       y2="651.65179"
       gradientTransform="matrix(1.2376002,0,0,1.2376002,-42.344817,-133.27888)" />
    <linearGradient
       inkscape:collect="always"
       xlink:href="#linearGradient4133"
       id="linearGradient4804"
       gradientUnits="userSpaceOnUse"
       x1="66.53125"
       y1="443.79465"
       x2="269.19196"
       y2="651.65179" />
  </defs>
  <metadata
     id="metadata7">
    <rdf:RDF>
      <cc:Work
         rdf:about="">
        <dc:format>image/svg+xml</dc:format>
        <dc:type
           rdf:resource="http://purl.org/dc/dcmitype/StillImage" />
        <dc:title></dc:title>
      </cc:Work>
    </rdf:RDF>
  </metadata>
  <g
     id="layer1"
     inkscape:groupmode="layer"
     inkscape:label="Layer 1">
    <path
       inkscape:connector-curvature="0"
       style="fill:#000000;fill-opacity:1;stroke:#000000;stroke-opacity:1"
       d="m 577.98214,402.9375 -4.1875,9.8125 -0.875,5.84375 0.34375,3.78125 -10.78125,1.71875 -0.84375,-3.71875 -2.65625,-5.28125 -7,-8.03125 -6.28125,2.0625 -0.96875,10.59375 0.96875,5.84375 1.53125,3.46875 -9.75,4.96875 -1.9375,-3.25 -4.15625,-4.21875 -9.125,-5.46875 -5.375,3.875 2.375,10.375 2.71875,5.28125 2.53125,2.84375 -7.75,7.71875 -2.84375,-2.5 -5.25,-2.75 -10.375,-2.375 -3.90625,5.375 5.46875,9.125 4.21875,4.15625 3.28125,1.9375 -4.96875,9.75 -3.5,-1.5 -5.8125,-0.96875 -10.625,0.9375 -2.03125,6.3125 8,7 5.3125,2.625 3.6875,0.84375 -1.6875,10.78125 -3.78125,-0.34375 -5.875,0.875 -9.78125,4.1875 0,6.625 9.78125,4.1875 5.875,0.875 3.78125,-0.34375 1.6875,10.78125 -3.6875,0.84375 -5.3125,2.625 -8,7 2.03125,6.3125 10.625,0.9375 5.8125,-0.96875 3.5,-1.5 4.96875,9.75 -3.28125,1.9375 -4.21875,4.15625 -5.46875,9.125 3.90625,5.375 10.375,-2.375 5.25,-2.75 2.84375,-2.5 7.75,7.71875 -2.53125,2.84375 -2.71875,5.28125 -2.375,10.375 5.375,3.875 9.125,-5.46875 4.15625,-4.21875 1.9375,-3.25 9.75,4.96875 -1.53125,3.46875 -0.96875,5.84375 0.96875,10.59375 6.28125,2.0625 7,-8.03125 2.65625,-5.28125 0.84375,-3.6875 10.78125,1.6875 -0.34375,3.78125 0.875,5.84375 4.1875,9.8125 6.625,0 4.15625,-9.8125 0.90625,-5.84375 -0.375,-3.78125 10.8125,-1.6875 0.8125,3.6875 2.65625,5.28125 7,8.03125 6.3125,-2.0625 0.9375,-10.59375 -0.96875,-5.84375 -1.5,-3.46875 9.75,-4.96875 1.90625,3.25 4.15625,4.21875 9.15625,5.46875 5.34375,-3.875 -2.375,-10.375 -2.71875,-5.28125 -2.5,-2.84375 7.71875,-7.71875 2.84375,2.5 5.25,2.75 10.375,2.375 3.90625,-5.375 -5.46875,-9.125 -4.21875,-4.15625 -3.25,-1.9375 4.96875,-9.75 3.46875,1.5 5.84375,0.96875 10.59375,-0.9375 2.0625,-6.3125 -8.03125,-7 -5.28125,-2.625 -3.71875,-0.84375 1.71875,-10.78125 3.78125,0.34375 5.84375,-0.875 9.78125,-4.1875 0,-6.625 -9.78125,-4.1875 -5.84375,-0.875 -3.78125,0.34375 -1.71875,-10.78125 3.71875,-0.84375 5.28125,-2.625 8.03125,-7 -2.0625,-6.3125 -10.59375,-0.9375 -5.84375,0.96875 -3.46875,1.5 -4.96875,-9.75 3.25,-1.9375 4.21875,-4.15625 5.46875,-9.125 -3.90625,-5.375 -10.375,2.375 -5.25,2.75 -2.84375,2.5 -7.71875,-7.71875 2.5,-2.84375 2.71875,-5.28125 2.375,-10.375 -5.34375,-3.875 -9.15625,5.46875 -4.15625,4.21875 -1.90625,3.25 -9.75,-4.96875 1.5,-3.46875 0.96875,-5.84375 -0.9375,-10.59375 -6.3125,-2.0625 -7,8.03125 -2.65625,5.28125 -0.8125,3.71875 -10.8125,-1.71875 0.375,-3.78125 -0.90625,-5.84375 -4.15625,-9.8125 -6.625,0 z m 3.3125,32.84375 c 4.69361,0 9.27543,0.45619 13.71875,1.3125 l -13.59375,41.5625 c -0.0421,-1.8e-4 -0.0829,0 -0.125,0 -10.7444,0 -20.15437,5.78003 -25.25,14.40625 l -41.15625,-13.46875 c 11.0135,-25.76628 36.61817,-43.8125 66.40625,-43.8125 z m 28.09375,5.65625 c 25.88813,10.95565 44.03125,36.61745 44.03125,66.5 0,5.63707 -0.68391,11.10959 -1.90625,16.375 L 610.41964,510.875 c 0.0959,-0.96465 0.15625,-1.9476 0.15625,-2.9375 0,-10.8344 -5.91001,-20.27823 -14.65625,-25.34375 l 13.46875,-41.15625 z m -98.875,52.53125 41.5,13.5625 c -0.002,0.13664 -0.0312,0.26916 -0.0312,0.40625 0,9.73978 4.77891,18.36318 12.09375,23.6875 l -13.5938,41.5625 c -24.43602,-11.56009 -41.34375,-36.42838 -41.34375,-65.25 0,-4.78244 0.48677,-9.44616 1.375,-13.96875 z m 70.78125,1.125 c 7.1008,0 12.84375,5.74295 12.84375,12.84375 0,7.1008 -5.74295,12.84375 -12.84375,12.84375 -7.1008,0 -12.875,-5.74295 -12.875,-12.84375 0,-7.1008 5.7742,-12.84375 12.875,-12.84375 z m 23.84375,29.84375 41.5,13.5625 c -11.49913,24.57097 -36.42368,41.59375 -65.34375,41.59375 -5.73691,0 -11.30557,-0.7029 -16.65625,-1.96875 l 13.46875,-41.09375 c 1.04567,0.11304 2.11178,0.1875 3.1875,0.1875 9.83944,0 18.53351,-4.83886 23.84375,-12.28125 z"
       id="path4198" />
    <path
       inkscape:connector-curvature="0"
       id="path3312"
       d="m 575.98214,400.9375 -4.1875,9.8125 -0.875,5.84375 0.34375,3.78125 -10.78125,1.71875 -0.84375,-3.71875 -2.65625,-5.28125 -7,-8.03125 -6.28125,2.0625 -0.96875,10.59375 0.96875,5.84375 1.53125,3.46875 -9.75,4.96875 -1.9375,-3.25 -4.15625,-4.21875 -9.125,-5.46875 -5.375,3.875 2.375,10.375 2.71875,5.28125 2.53125,2.84375 -7.75,7.71875 -2.84375,-2.5 -5.25,-2.75 -10.375,-2.375 -3.90625,5.375 5.46875,9.125 4.21875,4.15625 3.28125,1.9375 -4.96875,9.75 -3.5,-1.5 -5.8125,-0.96875 -10.625,0.9375 -2.03125,6.3125 8,7 5.3125,2.625 3.6875,0.84375 -1.6875,10.78125 -3.78125,-0.34375 -5.875,0.875 -9.78125,4.1875 0,6.625 9.78125,4.1875 5.875,0.875 3.78125,-0.34375 1.6875,10.78125 -3.6875,0.84375 -5.3125,2.625 -8,7 2.03125,6.3125 10.625,0.9375 5.8125,-0.96875 3.5,-1.5 4.96875,9.75 -3.28125,1.9375 -4.21875,4.15625 -5.46875,9.125 3.90625,5.375 10.375,-2.375 5.25,-2.75 2.84375,-2.5 7.75,7.71875 -2.53125,2.84375 -2.71875,5.28125 -2.375,10.375 5.375,3.875 9.125,-5.46875 4.15625,-4.21875 1.9375,-3.25 9.75,4.96875 -1.53125,3.46875 -0.96875,5.84375 0.96875,10.59375 6.28125,2.0625 7,-8.03125 2.65625,-5.28125 0.84375,-3.6875 10.78125,1.6875 -0.34375,3.78125 0.875,5.84375 4.1875,9.8125 6.625,0 4.15625,-9.8125 0.90625,-5.84375 -0.375,-3.78125 10.8125,-1.6875 0.8125,3.6875 2.65625,5.28125 7,8.03125 6.3125,-2.0625 0.9375,-10.59375 -0.96875,-5.84375 -1.5,-3.46875 9.75,-4.96875 1.90625,3.25 4.15625,4.21875 9.15625,5.46875 5.34375,-3.875 -2.375,-10.375 -2.71875,-5.28125 -2.5,-2.84375 7.71875,-7.71875 2.84375,2.5 5.25,2.75 10.375,2.375 3.90625,-5.375 -5.46875,-9.125 -4.21875,-4.15625 -3.25,-1.9375 4.96875,-9.75 3.46875,1.5 5.84375,0.96875 10.59375,-0.9375 2.0625,-6.3125 -8.03125,-7 -5.28125,-2.625 -3.71875,-0.84375 1.71875,-10.78125 3.78125,0.34375 5.84375,-0.875 9.78125,-4.1875 0,-6.625 -9.78125,-4.1875 -5.84375,-0.875 -3.78125,0.34375 -1.71875,-10.78125 3.71875,-0.84375 5.28125,-2.625 8.03125,-7 -2.0625,-6.3125 -10.59375,-0.9375 -5.84375,0.96875 -3.46875,1.5 -4.96875,-9.75 3.25,-1.9375 4.21875,-4.15625 5.46875,-9.125 -3.90625,-5.375 -10.375,2.375 -5.25,2.75 -2.84375,2.5 -7.71875,-7.71875 2.5,-2.84375 2.71875,-5.28125 2.375,-10.375 -5.34375,-3.875 -9.15625,5.46875 -4.15625,4.21875 -1.90625,3.25 -9.75,-4.96875 1.5,-3.46875 0.96875,-5.84375 -0.9375,-10.59375 -6.3125,-2.0625 -7,8.03125 -2.65625,5.28125 -0.8125,3.71875 -10.8125,-1.71875 0.375,-3.78125 -0.90625,-5.84375 -4.15625,-9.8125 -6.625,0 z m 3.3125,32.84375 c 4.69361,0 9.27543,0.45619 13.71875,1.3125 l -13.59375,41.5625 c -0.0421,-1.8e-4 -0.0829,0 -0.125,0 -10.7444,0 -20.15437,5.78003 -25.25,14.40625 l -41.15625,-13.46875 c 11.0135,-25.76628 36.61817,-43.8125 66.40625,-43.8125 z m 28.09375,5.65625 c 25.88813,10.95565 44.03125,36.61745 44.03125,66.5 0,5.63707 -0.68391,11.10959 -1.90625,16.375 L 608.41964,508.875 c 0.0959,-0.96465 0.15625,-1.9476 0.15625,-2.9375 0,-10.8344 -5.91001,-20.27823 -14.65625,-25.34375 l 13.46875,-41.15625 z m -98.875,52.53125 41.5,13.5625 c -0.002,0.13664 -0.0312,0.26916 -0.0312,0.40625 0,9.73978 4.77891,18.36318 12.09375,23.6875 l -13.59375,41.5625 c -24.43602,-11.56009 -41.34375,-36.42838 -41.34375,-65.25 0,-4.78244 0.48677,-9.44616 1.375,-13.96875 z m 70.78125,1.125 c 7.1008,0 12.84375,5.74295 12.84375,12.84375 0,7.1008 -5.74295,12.84375 -12.84375,12.84375 -7.1008,0 -12.875,-5.74295 -12.875,-12.84375 0,-7.1008 5.7742,-12.84375 12.875,-12.84375 z m 23.84375,29.84375 41.5,13.5625 c -11.49913,24.57097 -36.42368,41.59375 -65.34375,41.59375 -5.73691,0 -11.30557,-0.7029 -16.65625,-1.96875 l 13.46875,-41.09375 c 1.04567,0.11304 2.11178,0.1875 3.1875,0.1875 9.83944,0 18.53351,-4.83886 23.84375,-12.28125 z"
       style="fill:url(#linearGradient4139);fill-opacity:1;stroke:#000000;stroke-opacity:1" />
    <path
       style="fill:url(#linearGradient4804);fill-opacity:1;stroke:#000000;stroke-width:3;stroke-linejoin:round;stroke-miterlimit:4;stroke-dasharray:none"
       d="M 171.15625 449.75 L 165.75 466.25 L 165.78125 467.71875 L 167.6875 482.0625 L 147.90625 487.34375 L 142.375 474 L 141.65625 472.71875 L 128.75 461.125 L 116.5 468.1875 L 120.09375 485.1875 L 120.84375 486.4375 L 129.65625 497.875 L 115.15625 512.375 L 103.71875 503.5625 L 102.46875 502.8125 L 85.46875 499.21875 L 78.40625 511.46875 L 90 524.375 L 91.28125 525.09375 L 104.625 530.625 L 99.34375 550.40625 L 85 548.5 L 83.53125 548.46875 L 67.03125 553.875 L 67.03125 568 L 83.53125 573.40625 L 85 573.375 L 99.34375 571.46875 L 104.625 591.25 L 91.28125 596.78125 L 90 597.46875 L 78.40625 610.40625 L 85.46875 622.625 L 102.46875 619.0625 L 103.71875 618.3125 L 115.15625 609.5 L 129.65625 623.96875 L 120.84375 635.4375 L 120.09375 636.6875 L 116.5 653.6875 L 128.75 660.75 L 141.65625 649.15625 L 142.375 647.875 L 147.90625 634.5 L 167.6875 639.8125 L 165.78125 654.15625 L 165.75 655.625 L 171.15625 672.125 L 185.28125 672.125 L 190.6875 655.625 L 190.65625 654.15625 L 188.75 639.8125 L 208.53125 634.5 L 214.03125 647.875 L 214.75 649.15625 L 227.6875 660.75 L 239.90625 653.6875 L 236.34375 636.6875 L 235.59375 635.4375 L 226.78125 623.96875 L 241.25 609.5 L 252.71875 618.3125 L 253.96875 619.0625 L 270.96875 622.625 L 278.03125 610.40625 L 266.4375 597.46875 L 265.15625 596.78125 L 251.78125 591.25 L 257.09375 571.46875 L 271.4375 573.375 L 272.875 573.40625 L 289.40625 568 L 289.40625 553.875 L 272.875 548.46875 L 271.4375 548.5 L 257.09375 550.40625 L 251.78125 530.625 L 265.15625 525.09375 L 266.4375 524.375 L 278.03125 511.46875 L 270.96875 499.21875 L 253.96875 502.8125 L 252.71875 503.5625 L 241.25 512.375 L 226.78125 497.875 L 235.59375 486.4375 L 236.34375 485.1875 L 239.90625 468.1875 L 227.6875 461.125 L 214.75 472.71875 L 214.03125 474 L 208.53125 487.34375 L 188.75 482.0625 L 190.65625 467.71875 L 190.6875 466.25 L 185.28125 449.75 L 171.15625 449.75 z M 178.21875 525.59375 C 197.74754 525.59375 213.5625 541.40871 213.5625 560.9375 C 213.5625 580.46629 197.74754 596.28125 178.21875 596.28125 C 158.68996 596.28125 142.875 580.46629 142.875 560.9375 C 142.875 552.6821 145.6983 545.0775 150.4375 539.0625 C 156.90926 530.84854 166.94536 525.59375 178.21875 525.59375 z "
       id="path4800"
       inkscape:export-filename="C:\Users\Administrator\Desktop\cog.png"
       inkscape:export-xdpi="20.07"
       inkscape:export-ydpi="20.07" />
  </g>
</svg>
